<svg height="512" viewBox="0 0 512 512" width="512" xmlns="http://www.w3.org/2000/svg"><g id="Flat"><path d="m40 120h448v272h-448z" fill="#d6d6d4"/><path d="m40 120v40a32 32 0 0 0 32 32 32 32 0 0 0 32-32 32 32 0 0 0 32 32 32 32 0 0 0 32-32 32 32 0 0 0 32 32 32 32 0 0 0 32-32 32 32 0 0 0 32 32 32 32 0 0 0 32-32 32 32 0 0 0 32 32 32 32 0 0 0 32-32 32 32 0 0 0 32 32 32 32 0 0 0 32-32 32 32 0 0 0 32 32 32 32 0 0 0 32-32v-40z" fill="#cfcfcd"/><path d="m72 200h248v144h-248z" fill="#4db7e5"/><path d="m352 200h96v192h-96z" fill="#4db7e5"/><path d="m352 200h96v16h-96z" fill="#4aafdb"/><path d="m360 120h64l-16-96h-56z" fill="#ffb531"/><path d="m232 24h64v96h-64z" fill="#ffb531"/><path d="m104 120h64l8-96h-56z" fill="#ffb531"/><g fill="#d75246"><path d="m424 120h64l-24-96h-56z"/><path d="m296 120h64l-8-96h-56z"/><path d="m168 120h64v-96h-56z"/><path d="m40 120h64l16-96h-56z"/></g><path d="m360 120h64a0 0 0 0 1 0 0v16a32 32 0 0 1 -32 32 32 32 0 0 1 -32-32v-16a0 0 0 0 1 0 0z" fill="#fcac1f"/><path d="m232 120h64a0 0 0 0 1 0 0v16a32 32 0 0 1 -32 32 32 32 0 0 1 -32-32v-16a0 0 0 0 1 0 0z" fill="#fcac1f"/><path d="m104 120h64a0 0 0 0 1 0 0v16a32 32 0 0 1 -32 32 32 32 0 0 1 -32-32v-16a0 0 0 0 1 0 0z" fill="#fcac1f"/><path d="m424 120h64a0 0 0 0 1 0 0v16a32 32 0 0 1 -32 32 32 32 0 0 1 -32-32v-16a0 0 0 0 1 0 0z" fill="#ca4c41"/><path d="m296 120h64a0 0 0 0 1 0 0v16a32 32 0 0 1 -32 32 32 32 0 0 1 -32-32v-16a0 0 0 0 1 0 0z" fill="#ca4c41"/><path d="m168 120h64a0 0 0 0 1 0 0v16a32 32 0 0 1 -32 32 32 32 0 0 1 -32-32v-16a0 0 0 0 1 0 0z" fill="#ca4c41"/><path d="m40 120h64a0 0 0 0 1 0 0v16a32 32 0 0 1 -32 32 32 32 0 0 1 -32-32v-16a0 0 0 0 1 0 0z" fill="#ca4c41"/><path d="m408 272h16v48h-16z" fill="#e0e0de"/><path d="m40 392h448v32h-448z" fill="#e0e0de"/><path d="m72 200h248v16h-248z" fill="#4aafdb"/><path d="m224 488h-128v-120h-56v-32a40 40 0 0 1 40-40h160a40 40 0 0 1 40 40v32h-56z" fill="#348fd9"/><path d="m192 272v24l-32 32-32-32v-24z" fill="#fec9a3"/><path d="m192 272v23.44a64.093 64.093 0 0 1 -64 0v-23.44z" fill="#fec093"/><path d="m40 368h56a0 0 0 0 1 0 0v120a0 0 0 0 1 0 0h-24a32 32 0 0 1 -32-32v-88a0 0 0 0 1 0 0z" fill="#feb784"/><path d="m224 368h56a0 0 0 0 1 0 0v88a32 32 0 0 1 -32 32h-24a0 0 0 0 1 0 0v-120a0 0 0 0 1 0 0z" fill="#feb784"/><path d="m152 328h16v88h-16z" fill="#2b78b8"/><path d="m120 360h16v16h-16z" fill="#2b78b8"/><path d="m96 400h-56v56h56l136 32h16a32 32 0 0 0 32-32v-24z" fill="#fec093"/><path d="m224 400-184 32v24a32 32 0 0 0 32 32h16l136-32h56v-56z" fill="#fec9a3"/><path d="m128 336 32-8-32-32z" fill="#459de6"/><path d="m192 296-32 32 32 8z" fill="#459de6"/><path d="m96 192h8a0 0 0 0 1 0 0v32a0 0 0 0 1 0 0h-8a16 16 0 0 1 -16-16 16 16 0 0 1 16-16z" fill="#fec093"/><path d="m232 192h8a0 0 0 0 1 0 0v32a0 0 0 0 1 0 0h-8a16 16 0 0 1 -16-16 16 16 0 0 1 16-16z" fill="#fec093" transform="matrix(-1 0 0 -1 456 416)"/><path d="m128 128h64a32 32 0 0 1 32 32v64a64 64 0 0 1 -64 64 64 64 0 0 1 -64-64v-64a32 32 0 0 1 32-32z" fill="#fec9a3"/><path d="m96 200 24-40h80l24 40v-40a32 32 0 0 0 -32-32h-64a32 32 0 0 0 -32 32z" fill="#804a32"/><path d="m160 255.294a51.2 51.2 0 0 1 -28.438-8.638l8.876-13.312a35.174 35.174 0 0 0 39.124 0l8.876 13.312a51.2 51.2 0 0 1 -28.438 8.638z" fill="#feb784"/><path d="m132 216a12 12 0 1 1 12-12 12.013 12.013 0 0 1 -12 12z" fill="#92563a"/><path d="m188 216a12 12 0 1 1 12-12 12.013 12.013 0 0 1 -12 12z" fill="#92563a"/><path d="m232 112h-104a32 32 0 0 0 -32 32v56l24-40h88a24 24 0 0 0 24-24z" fill="#92563a"/><path d="m408 320h16v16h-16z" fill="#4aafdb"/></g></svg>